 <svg width="377" height="377" viewBox="0 0 377 377" fill="none" xmlns="http://www.w3.org/2000/svg">
<g id="teragon">
<g id="icon">
<path id="outer" d="M153.562 88.9754L164.71 130.58C164.987 131.615 164.692 132.719 163.934 133.477L133.477 163.934C132.719 164.692 131.615 164.988 130.579 164.71L88.9753 153.562C87.9401 153.285 87.1314 152.476 86.854 151.441L75.7062 109.837C75.4288 108.802 75.7248 107.697 76.4827 106.939L106.939 76.4827C107.697 75.7248 108.802 75.4288 109.837 75.7062L151.441 86.854C152.476 87.1314 153.285 87.9401 153.562 88.9754Z" stroke="#959595" stroke-width="6"/>
<g id="body">
<path id="1" d="M253.971 90.3895L265.119 131.994C265.397 133.029 265.101 134.134 264.343 134.891L233.886 165.348C233.129 166.106 232.024 166.402 230.989 166.124L189.384 154.976C188.349 154.699 187.541 153.89 187.263 152.855L176.115 111.251C175.838 110.216 176.134 109.111 176.892 108.353L207.348 77.8969C208.106 77.139 209.211 76.843 210.246 77.1204L251.85 88.2682C252.885 88.5456 253.694 89.3543 253.971 90.3895Z" stroke="#2A45CB" stroke-width="6"/>
<path id="2" d="M310.54 146.958L321.688 188.562C321.965 189.598 321.669 190.702 320.911 191.46L290.455 221.916C289.697 222.674 288.592 222.97 287.557 222.693L245.953 211.545C244.918 211.268 244.109 210.459 243.832 209.424L232.684 167.82C232.407 166.784 232.702 165.68 233.46 164.922L263.917 134.465C264.675 133.708 265.779 133.412 266.815 133.689L308.419 144.837C309.454 145.114 310.263 145.923 310.54 146.958Z" stroke="#2A45CB" stroke-width="6"/>
<path id="3" d="M289.327 224.74L300.475 266.344C300.752 267.379 300.456 268.484 299.698 269.242L269.242 299.698C268.484 300.456 267.379 300.752 266.344 300.475L224.74 289.327C223.705 289.049 222.896 288.241 222.619 287.205L211.471 245.601C211.193 244.566 211.489 243.461 212.247 242.704L242.704 212.247C243.461 211.489 244.566 211.193 245.601 211.471L287.205 222.619C288.241 222.896 289.049 223.705 289.327 224.74Z" stroke="#959595" stroke-width="6"/>
<path id="4" d="M211.545 245.953L222.693 287.557C222.97 288.592 222.674 289.697 221.916 290.455L191.46 320.911C190.702 321.669 189.598 321.965 188.562 321.688L146.958 310.54C145.923 310.263 145.114 309.454 144.837 308.419L133.689 266.814C133.412 265.779 133.708 264.675 134.465 263.917L164.922 233.46C165.68 232.702 166.784 232.406 167.82 232.684L209.424 243.832C210.459 244.109 211.268 244.918 211.545 245.953Z" stroke="#959595" stroke-width="6"/>
<path id="5" d="M154.977 189.384L166.124 230.989C166.402 232.024 166.106 233.129 165.348 233.886L134.891 264.343C134.134 265.101 133.029 265.397 131.994 265.119L90.3895 253.971C89.3543 253.694 88.5456 252.885 88.2682 251.85L77.1204 210.246C76.843 209.211 77.139 208.106 77.8969 207.348L108.353 176.892C109.111 176.134 110.216 175.838 111.251 176.115L152.855 187.263C153.89 187.541 154.699 188.349 154.977 189.384Z" stroke="#959595" stroke-width="6"/>
<path id="center" d="M232.758 168.171L243.906 209.775C244.183 210.811 243.887 211.915 243.13 212.673L212.673 243.13C211.915 243.887 210.811 244.183 209.775 243.906L168.171 232.758C167.136 232.481 166.327 231.672 166.05 230.637L154.902 189.033C154.625 187.997 154.921 186.893 155.679 186.135L186.135 155.679C186.893 154.921 187.997 154.625 189.033 154.902L230.637 166.05C231.672 166.327 232.481 167.136 232.758 168.171Z" fill="#2A45CB" stroke="#2A45CB" stroke-width="6"/>
</g>
</g>
</g>
</svg>
