<svg width="119" height="104" viewBox="0 0 119 104" fill="none" xmlns="http://www.w3.org/2000/svg">
<g id="teragoncloud">
<g id="icon">
<path id="long" d="M21.9513 34.9356L72.171 34.9356C73.4046 34.9356 74.5124 35.6907 74.9634 36.8389L82.3003 55.5194C82.5772 56.2244 82.5772 57.0079 82.3003 57.7129L74.9634 76.3934C74.5124 77.5416 73.4046 78.2966 72.171 78.2967L21.9513 78.2967C20.8795 78.2967 19.8891 77.7249 19.3532 76.7967L8.56803 58.1161C8.03213 57.1879 8.03213 56.0443 8.56803 55.1161L19.3532 36.4356C19.8891 35.5074 20.8795 34.9356 21.9513 34.9356Z" fill="#2A45CB" stroke="white" stroke-width="2"/>
<path id="top" d="M46.2508 14.0946L67.8212 14.0946C68.893 14.0946 69.8833 14.6664 70.4192 15.5946L81.2044 34.2751C81.7403 35.2033 81.7403 36.3469 81.2044 37.2751L70.4192 55.9556C69.8833 56.8838 68.8929 57.4556 67.8212 57.4556L46.2507 57.4556C45.179 57.4556 44.1886 56.8838 43.6527 55.9556L32.8675 37.2751C32.3316 36.3469 32.3316 35.2033 32.8675 34.2751L43.6527 15.5946C44.1886 14.6664 45.179 14.0946 46.2508 14.0946Z" fill="#2A45CB" stroke="white" stroke-width="2"/>
<path id="side" d="M72.4399 35.0458L94.0103 35.0458C95.0821 35.0458 96.0725 35.6176 96.6084 36.5458L107.394 55.2263C107.93 56.1545 107.93 57.2981 107.394 58.2263L96.6084 76.9068C96.0725 77.835 95.0821 78.4068 94.0103 78.4068L72.4399 78.4068C71.3681 78.4068 70.3778 77.835 69.8419 76.9068L59.0567 58.2263C58.5208 57.2981 58.5208 56.1545 59.0567 55.2263L69.8419 36.5458C70.3778 35.6176 71.3681 35.0458 72.4399 35.0458Z" fill="#2A45CB" stroke="white" stroke-width="2"/>
</g>
</g>
</svg>
