<svg width="111" height="80" viewBox="0 0 111 80" fill="none" xmlns="http://www.w3.org/2000/svg">
<g id="teragoncloud-transparent-light">
<g id="icon">
<path id="Subtract" fill-rule="evenodd" clip-rule="evenodd" d="M24.0598 24.68C23.1623 23.0755 21.8207 20.8409 19.9823 20.8409L14.4029 20.8409C12.9716 20.8409 11.6416 21.6335 10.9259 22.9128L0.529405 41.4982C-0.171699 42.7515 -0.176751 44.2824 0.51613 45.521L10.9664 64.2024C11.6593 65.4411 12.9463 66.202 14.3485 66.202H59.1554C59.6113 66.202 60.1073 64.7105 59.8847 64.3126V64.3126L49.4345 45.6312V45.6312C49.3441 45.4696 49.178 45.361 48.9929 45.361L37.8922 45.361C36.49 45.361 35.203 44.6 34.5101 43.3614L24.0598 24.68V24.68Z" fill="white"/>
<path id="side" d="M60.9313 23.5502C61.6483 22.258 63.0193 21.4665 64.4969 21.4916L85.2721 21.8449C86.6767 21.8688 87.9658 22.6278 88.6682 23.8444L99.4985 42.603C100.201 43.8196 100.214 45.3155 99.532 46.5438L89.4504 64.7124C88.7334 66.0045 87.3624 66.7961 85.8848 66.771L65.1096 66.4176C63.705 66.3938 62.4159 65.6348 61.7135 64.4182L50.8832 45.6595C50.1808 44.443 50.1681 42.9471 50.8497 41.7187L60.9313 23.5502Z" fill="white"/>
<path id="Subtract_2" fill-rule="evenodd" clip-rule="evenodd" d="M38.5907 0C37.1616 0 35.8411 0.762395 35.1266 2L24.8569 19.7877C24.1423 21.0253 24.1423 22.5501 24.8569 23.7877L35.1266 41.5754C35.8411 42.813 37.1616 43.5754 38.5907 43.5754L46.033 43.5754C47.8144 43.5754 49.1244 41.4569 50.0151 39.9141V39.9141L60.2848 22.1264C60.9994 20.8888 62.3199 20.1264 63.7489 20.1264H72.6574C72.8358 20.1264 72.9532 19.9422 72.864 19.7877V19.7877L62.5942 2C61.8797 0.762395 60.5592 0 59.1301 0H38.5907Z" fill="white"/>
</g>
</g>
</svg>
